<mxfile host="Electron" modified="2024-01-08T11:42:48.584Z" agent="Mozilla/5.0 (Windows NT 10.0; Win64; x64) AppleWebKit/537.36 (KHTML, like Gecko) draw.io/22.1.16 Chrome/120.0.6099.109 Electron/28.1.0 Safari/537.36" etag="DVRLch6sy--jTyYrHHn9" version="22.1.16" type="device">
  <diagram id="R2lEEEUBdFMjLlhIrx00" name="Page-1">
    <mxGraphModel dx="2353" dy="2468" grid="1" gridSize="10" guides="1" tooltips="1" connect="1" arrows="1" fold="1" page="1" pageScale="1" pageWidth="1100" pageHeight="850" math="0" shadow="0" extFonts="Permanent Marker^https://fonts.googleapis.com/css?family=Permanent+Marker">
      <root>
        <mxCell id="0" />
        <mxCell id="1" parent="0" />
        <mxCell id="q7pQSOy4l69L29XSGlJi-17" value="Единый модуль, реализующий паттерн Transactional OutBox" style="rounded=0;whiteSpace=wrap;html=1;verticalAlign=bottom;dashed=1;dashPattern=12 12;fontSize=14;" parent="1" vertex="1">
          <mxGeometry x="680" y="-1331.25" width="480" height="351.25" as="geometry" />
        </mxCell>
        <mxCell id="ocmXwIGSyRuY59burkTd-58" value="Маппинг тэгов и параметров" style="rounded=0;whiteSpace=wrap;html=1;verticalAlign=bottom;dashed=1;dashPattern=12 12;fontSize=14;" vertex="1" parent="1">
          <mxGeometry x="-670" y="-1120" width="190" height="130" as="geometry" />
        </mxCell>
        <mxCell id="uPt5MrWwTsGkhWe8A9bA-5" value="Источники данных&amp;nbsp;" style="rounded=0;whiteSpace=wrap;html=1;verticalAlign=top;dashed=1;dashPattern=12 12;fontSize=14;" parent="1" vertex="1">
          <mxGeometry x="-1090" y="-1180" width="400" height="250" as="geometry" />
        </mxCell>
        <mxCell id="ocmXwIGSyRuY59burkTd-61" value="Transceiver" style="rounded=0;whiteSpace=wrap;html=1;verticalAlign=bottom;dashed=1;dashPattern=12 12;fontSize=14;" vertex="1" parent="1">
          <mxGeometry x="700" y="-1430" width="190" height="210" as="geometry" />
        </mxCell>
        <mxCell id="R5ZMj6Ky-UmzNaYM-wRt-13" value="База данных" style="rounded=0;whiteSpace=wrap;html=1;verticalAlign=top;dashed=1;dashPattern=12 12;fontSize=14;" parent="1" vertex="1">
          <mxGeometry x="950" y="-1231.25" width="190" height="220" as="geometry" />
        </mxCell>
        <mxCell id="R5ZMj6Ky-UmzNaYM-wRt-1" value="Локальный рассчет" style="rounded=0;whiteSpace=wrap;html=1;verticalAlign=bottom;dashed=1;dashPattern=12 12;fontSize=14;" parent="1" vertex="1">
          <mxGeometry x="700" y="-940" width="190" height="130" as="geometry" />
        </mxCell>
        <mxCell id="BQeP7K4-G9sG8Y37uqka-18" value="Валидация данных" style="rounded=0;whiteSpace=wrap;html=1;verticalAlign=bottom;dashed=1;dashPattern=12 12;fontSize=14;" parent="1" vertex="1">
          <mxGeometry x="-200" y="-1220" width="190" height="410" as="geometry" />
        </mxCell>
        <mxCell id="tOWNumE1O2ndxBQ_jYK9-1" value="Вычислитель" style="html=1;outlineConnect=0;whiteSpace=wrap;shape=mxgraph.archimate3.application;appType=comp;archiType=square;fontSize=14;dashed=1;" parent="1" vertex="1">
          <mxGeometry x="730" y="-910" width="150" height="75" as="geometry" />
        </mxCell>
        <mxCell id="YP6sj-OteDb_MOu1oAyH-8" value="OPC Cервер 1" style="html=1;outlineConnect=0;whiteSpace=wrap;shape=mxgraph.archimate3.application;appType=serv;archiType=rounded;fontSize=14;" parent="1" vertex="1">
          <mxGeometry x="-880" y="-1150" width="150" height="75" as="geometry" />
        </mxCell>
        <mxCell id="YP6sj-OteDb_MOu1oAyH-11" value="OPC сервер 2" style="html=1;outlineConnect=0;whiteSpace=wrap;shape=mxgraph.archimate3.application;appType=serv;archiType=rounded;fontSize=14;" parent="1" vertex="1">
          <mxGeometry x="-880" y="-1030" width="150" height="75" as="geometry" />
        </mxCell>
        <mxCell id="YP6sj-OteDb_MOu1oAyH-16" value="OPC клиент" style="html=1;outlineConnect=0;whiteSpace=wrap;shape=mxgraph.archimate3.application;appType=comp;archiType=square;fontSize=14;" parent="1" vertex="1">
          <mxGeometry x="-650" y="-1096.88" width="150" height="75" as="geometry" />
        </mxCell>
        <mxCell id="2gFqnnszDHM0OTCBpC2Q-5" value="Очередь Коллектора" style="html=1;outlineConnect=0;whiteSpace=wrap;shape=mxgraph.archimate3.application;appType=serv;archiType=rounded;fontSize=14;" parent="1" vertex="1">
          <mxGeometry x="360" y="-1203.13" width="150" height="75" as="geometry" />
        </mxCell>
        <mxCell id="2gFqnnszDHM0OTCBpC2Q-6" value="Collector" style="html=1;outlineConnect=0;whiteSpace=wrap;shape=mxgraph.archimate3.application;appType=comp;archiType=square;fontSize=14;" parent="1" vertex="1">
          <mxGeometry x="720" y="-1203.75" width="150" height="75" as="geometry" />
        </mxCell>
        <mxCell id="2gFqnnszDHM0OTCBpC2Q-9" value="Receiver" style="html=1;outlineConnect=0;whiteSpace=wrap;shape=mxgraph.archimate3.application;appType=comp;archiType=square;fontSize=14;" parent="1" vertex="1">
          <mxGeometry x="720" y="-1410.63" width="150" height="71.25" as="geometry" />
        </mxCell>
        <mxCell id="2gFqnnszDHM0OTCBpC2Q-16" value="Вычислитель&lt;br style=&quot;font-size: 14px;&quot;&gt;(пул потоков, асинхронность)" style="html=1;outlineConnect=0;whiteSpace=wrap;shape=mxgraph.archimate3.application;appType=comp;archiType=square;fontSize=14;dashed=1;" parent="1" vertex="1">
          <mxGeometry x="720" y="-920" width="150" height="75" as="geometry" />
        </mxCell>
        <mxCell id="l4Pmd04nFDIlkqcD6siq-2" value="" style="endArrow=block;html=1;rounded=0;exitX=1;exitY=0.5;exitDx=0;exitDy=0;exitPerimeter=0;entryX=0;entryY=0.75;entryDx=0;entryDy=0;entryPerimeter=0;endFill=1;startArrow=block;startFill=1;fontSize=14;" parent="1" source="YP6sj-OteDb_MOu1oAyH-11" target="YP6sj-OteDb_MOu1oAyH-16" edge="1">
          <mxGeometry width="50" height="50" relative="1" as="geometry">
            <mxPoint x="-720" y="-1102" as="sourcePoint" />
            <mxPoint x="-670" y="-1082.5" as="targetPoint" />
          </mxGeometry>
        </mxCell>
        <mxCell id="4BpoNXQiU-3AtLkxDCB7-33" value="OPC" style="edgeLabel;html=1;align=center;verticalAlign=middle;resizable=0;points=[];fontSize=14;" parent="l4Pmd04nFDIlkqcD6siq-2" vertex="1" connectable="0">
          <mxGeometry x="0.2224" y="-1" relative="1" as="geometry">
            <mxPoint x="-14" y="8" as="offset" />
          </mxGeometry>
        </mxCell>
        <mxCell id="l4Pmd04nFDIlkqcD6siq-3" value="" style="endArrow=classic;html=1;rounded=0;exitX=1;exitY=0.5;exitDx=0;exitDy=0;exitPerimeter=0;entryX=0;entryY=0.5;entryDx=0;entryDy=0;entryPerimeter=0;endFill=1;fontSize=14;" parent="1" source="YP6sj-OteDb_MOu1oAyH-16" target="Rr9Yoe83aBNbTRtHp_S8-6" edge="1">
          <mxGeometry width="50" height="50" relative="1" as="geometry">
            <mxPoint x="-510" y="-985" as="sourcePoint" />
            <mxPoint x="-420" y="-1062.5" as="targetPoint" />
          </mxGeometry>
        </mxCell>
        <mxCell id="l4Pmd04nFDIlkqcD6siq-5" value="" style="endArrow=block;html=1;rounded=0;exitX=1;exitY=0.5;exitDx=0;exitDy=0;exitPerimeter=0;entryX=0;entryY=0.25;entryDx=0;entryDy=0;entryPerimeter=0;endFill=1;startArrow=block;startFill=1;fontSize=14;" parent="1" target="YP6sj-OteDb_MOu1oAyH-16" edge="1">
          <mxGeometry width="50" height="50" relative="1" as="geometry">
            <mxPoint x="-730" y="-1110" as="sourcePoint" />
            <mxPoint x="-670" y="-1082.5" as="targetPoint" />
          </mxGeometry>
        </mxCell>
        <mxCell id="4BpoNXQiU-3AtLkxDCB7-34" value="OPC" style="edgeLabel;html=1;align=center;verticalAlign=middle;resizable=0;points=[];fontSize=14;" parent="l4Pmd04nFDIlkqcD6siq-5" vertex="1" connectable="0">
          <mxGeometry x="0.2511" y="1" relative="1" as="geometry">
            <mxPoint x="-16" y="-6" as="offset" />
          </mxGeometry>
        </mxCell>
        <mxCell id="2gFqnnszDHM0OTCBpC2Q-18" value="Exchange IN" style="html=1;outlineConnect=0;whiteSpace=wrap;shape=mxgraph.archimate3.application;appType=serv;archiType=rounded;fontSize=14;" parent="1" vertex="1">
          <mxGeometry x="105" y="-1101.88" width="150" height="80" as="geometry" />
        </mxCell>
        <mxCell id="l4Pmd04nFDIlkqcD6siq-34" value="" style="endArrow=block;html=1;rounded=0;exitX=1;exitY=0.5;exitDx=0;exitDy=0;exitPerimeter=0;entryX=0;entryY=0.5;entryDx=0;entryDy=0;entryPerimeter=0;endFill=1;fontSize=14;" parent="1" source="2gFqnnszDHM0OTCBpC2Q-18" target="2gFqnnszDHM0OTCBpC2Q-5" edge="1">
          <mxGeometry width="50" height="50" relative="1" as="geometry">
            <mxPoint x="260" y="-1089.38" as="sourcePoint" />
            <mxPoint x="420" y="-1089.38" as="targetPoint" />
            <Array as="points">
              <mxPoint x="310" y="-1061.38" />
              <mxPoint x="310" y="-1165.38" />
            </Array>
          </mxGeometry>
        </mxCell>
        <mxCell id="l4Pmd04nFDIlkqcD6siq-37" value="" style="endArrow=block;html=1;rounded=0;exitX=1;exitY=0.5;exitDx=0;exitDy=0;exitPerimeter=0;entryX=0;entryY=0.5;entryDx=0;entryDy=0;entryPerimeter=0;endFill=1;fontSize=14;" parent="1" source="2gFqnnszDHM0OTCBpC2Q-5" target="2gFqnnszDHM0OTCBpC2Q-6" edge="1">
          <mxGeometry width="50" height="50" relative="1" as="geometry">
            <mxPoint x="740" y="-1230.63" as="sourcePoint" />
            <mxPoint x="820" y="-1230.63" as="targetPoint" />
            <Array as="points" />
          </mxGeometry>
        </mxCell>
        <mxCell id="l4Pmd04nFDIlkqcD6siq-38" value="" style="endArrow=block;html=1;rounded=0;exitX=1;exitY=0.5;exitDx=0;exitDy=0;exitPerimeter=0;endFill=1;entryX=0;entryY=0.5;entryDx=0;entryDy=0;entryPerimeter=0;fontSize=14;dashed=1;" parent="1" source="JOtzG4i4qyJZSoD8lDBt-39" edge="1">
          <mxGeometry width="50" height="50" relative="1" as="geometry">
            <mxPoint x="750" y="-1050.63" as="sourcePoint" />
            <mxPoint x="720" y="-1063.75" as="targetPoint" />
            <Array as="points" />
          </mxGeometry>
        </mxCell>
        <mxCell id="l4Pmd04nFDIlkqcD6siq-47" value="" style="endArrow=open;html=1;rounded=0;endFill=0;fontSize=14;exitX=0.5;exitY=1;exitDx=0;exitDy=0;exitPerimeter=0;dashed=1;entryX=0.5;entryY=0;entryDx=0;entryDy=0;entryPerimeter=0;" parent="1" source="ocmXwIGSyRuY59burkTd-65" edge="1" target="2gFqnnszDHM0OTCBpC2Q-16">
          <mxGeometry width="50" height="50" relative="1" as="geometry">
            <mxPoint x="795" y="-1026.25" as="sourcePoint" />
            <mxPoint x="795" y="-861.25" as="targetPoint" />
            <Array as="points" />
          </mxGeometry>
        </mxCell>
        <mxCell id="l4Pmd04nFDIlkqcD6siq-52" value="" style="endArrow=classic;html=1;rounded=0;endFill=1;entryX=0.5;entryY=1;entryDx=0;entryDy=0;entryPerimeter=0;exitX=1;exitY=0.5;exitDx=0;exitDy=0;exitPerimeter=0;fontSize=14;dashed=1;" parent="1" source="2gFqnnszDHM0OTCBpC2Q-16" target="ocmXwIGSyRuY59burkTd-3" edge="1">
          <mxGeometry width="50" height="50" relative="1" as="geometry">
            <mxPoint x="1110" y="-661.25" as="sourcePoint" />
            <mxPoint x="1045" y="-1030" as="targetPoint" />
            <Array as="points">
              <mxPoint x="1045" y="-880" />
            </Array>
          </mxGeometry>
        </mxCell>
        <mxCell id="l4Pmd04nFDIlkqcD6siq-55" value="" style="endArrow=classic;html=1;rounded=0;exitX=0;exitY=0.5;exitDx=0;exitDy=0;exitPerimeter=0;entryX=0.5;entryY=1;entryDx=0;entryDy=0;entryPerimeter=0;endFill=1;fontSize=14;dashed=1;" parent="1" source="2gFqnnszDHM0OTCBpC2Q-16" target="2gFqnnszDHM0OTCBpC2Q-18" edge="1">
          <mxGeometry width="50" height="50" relative="1" as="geometry">
            <mxPoint x="250" y="-569.38" as="sourcePoint" />
            <mxPoint x="340" y="-568.38" as="targetPoint" />
            <Array as="points">
              <mxPoint x="180" y="-879" />
            </Array>
          </mxGeometry>
        </mxCell>
        <mxCell id="BQeP7K4-G9sG8Y37uqka-5" value="" style="endArrow=classic;html=1;rounded=0;exitX=1;exitY=0.5;exitDx=0;exitDy=0;exitPerimeter=0;endFill=1;entryX=0;entryY=0.75;entryDx=0;entryDy=0;entryPerimeter=0;fontSize=14;" parent="1" source="Rr9Yoe83aBNbTRtHp_S8-6" target="BQeP7K4-G9sG8Y37uqka-6" edge="1">
          <mxGeometry width="50" height="50" relative="1" as="geometry">
            <mxPoint x="-270" y="-1062.5" as="sourcePoint" />
            <mxPoint x="-240" y="-1377" as="targetPoint" />
            <Array as="points" />
          </mxGeometry>
        </mxCell>
        <mxCell id="BQeP7K4-G9sG8Y37uqka-6" value="Локальный &lt;br&gt;валидатор" style="html=1;outlineConnect=0;whiteSpace=wrap;shape=mxgraph.archimate3.application;appType=comp;archiType=square;fontSize=14;" parent="1" vertex="1">
          <mxGeometry x="-180" y="-1210" width="150" height="200" as="geometry" />
        </mxCell>
        <mxCell id="2gFqnnszDHM0OTCBpC2Q-32" value="&lt;table cellpadding=&quot;0&quot; cellspacing=&quot;0&quot; style=&quot;font-size: 14px; width: 100%; height: 100%;&quot;&gt;&lt;tbody style=&quot;font-size: 14px;&quot;&gt;&lt;tr style=&quot;height: 20px; font-size: 14px;&quot;&gt;&lt;td align=&quot;center&quot; style=&quot;font-size: 14px;&quot;&gt;&lt;/td&gt;&lt;/tr&gt;&lt;tr style=&quot;font-size: 14px;&quot;&gt;&lt;td align=&quot;left&quot; valign=&quot;top&quot; style=&quot;padding: 4px; font-size: 14px;&quot;&gt;Результат вычисления&lt;/td&gt;&lt;/tr&gt;&lt;/tbody&gt;&lt;/table&gt;" style="html=1;outlineConnect=0;whiteSpace=wrap;shape=mxgraph.archimate3.businessObject;overflow=fill;fontSize=14;dashed=1;" parent="1" vertex="1">
          <mxGeometry x="520" y="-970" width="150" height="70" as="geometry" />
        </mxCell>
        <mxCell id="R5ZMj6Ky-UmzNaYM-wRt-7" value="Redis" style="html=1;outlineConnect=0;whiteSpace=wrap;shape=mxgraph.archimate3.application;appType=func;archiType=rounded;fontSize=14;" parent="1" vertex="1">
          <mxGeometry x="970" y="-1203.75" width="150" height="75" as="geometry" />
        </mxCell>
        <mxCell id="R5ZMj6Ky-UmzNaYM-wRt-9" value="" style="endArrow=open;html=1;rounded=0;exitX=1;exitY=0.5;exitDx=0;exitDy=0;exitPerimeter=0;entryX=0;entryY=0.5;entryDx=0;entryDy=0;entryPerimeter=0;endFill=0;fontSize=14;" parent="1" source="2gFqnnszDHM0OTCBpC2Q-6" target="R5ZMj6Ky-UmzNaYM-wRt-7" edge="1">
          <mxGeometry width="50" height="50" relative="1" as="geometry">
            <mxPoint x="880" y="-1223.25" as="sourcePoint" />
            <mxPoint x="1180" y="-1273.25" as="targetPoint" />
            <Array as="points" />
          </mxGeometry>
        </mxCell>
        <mxCell id="R5ZMj6Ky-UmzNaYM-wRt-22" value="Единый входной источник данных" style="shape=callout;whiteSpace=wrap;html=1;perimeter=calloutPerimeter;position2=0.58;fontSize=14;" parent="1" vertex="1">
          <mxGeometry x="120" y="-1189.38" width="120" height="90" as="geometry" />
        </mxCell>
        <mxCell id="R5ZMj6Ky-UmzNaYM-wRt-24" value="Удаленный сервис расчетов" style="html=1;outlineConnect=0;whiteSpace=wrap;shape=mxgraph.archimate3.application;appType=comp;archiType=square;fontSize=14;" parent="1" vertex="1">
          <mxGeometry x="1360" y="-1420" width="150" height="180" as="geometry" />
        </mxCell>
        <mxCell id="q7pQSOy4l69L29XSGlJi-2" value="&lt;br style=&quot;font-size: 14px;&quot;&gt;&lt;br style=&quot;font-size: 14px;&quot;&gt;Перенаправить&amp;nbsp;в&lt;br&gt;&amp;nbsp;OPC client" style="html=1;outlineConnect=0;whiteSpace=wrap;shape=mxgraph.archimate3.businessObject;overflow=fill;fontSize=14;" parent="1" vertex="1">
          <mxGeometry x="530" y="-1360" width="130" height="85" as="geometry" />
        </mxCell>
        <mxCell id="q7pQSOy4l69L29XSGlJi-11" value="Выходная очередь валидатора" style="html=1;outlineConnect=0;whiteSpace=wrap;shape=mxgraph.archimate3.application;appType=serv;archiType=rounded;fontSize=14;" parent="1" vertex="1">
          <mxGeometry x="360" y="-1412.5" width="150" height="75" as="geometry" />
        </mxCell>
        <mxCell id="q7pQSOy4l69L29XSGlJi-13" value="" style="edgeStyle=elbowEdgeStyle;html=1;endArrow=classic;elbow=vertical;endFill=1;rounded=0;entryX=0.5;entryY=0;entryDx=0;entryDy=0;entryPerimeter=0;exitX=0.5;exitY=1;exitDx=0;exitDy=0;exitPerimeter=0;fontSize=14;" parent="1" source="2gFqnnszDHM0OTCBpC2Q-6" target="ocmXwIGSyRuY59burkTd-65" edge="1">
          <mxGeometry x="1" y="10" relative="1" as="geometry">
            <mxPoint x="180" y="-971.25" as="sourcePoint" />
            <mxPoint x="795" y="-1101.25" as="targetPoint" />
          </mxGeometry>
        </mxCell>
        <mxCell id="BQeP7K4-G9sG8Y37uqka-4" value="&lt;table cellpadding=&quot;0&quot; cellspacing=&quot;0&quot; style=&quot;font-size: 14px; width: 100%; height: 100%;&quot;&gt;&lt;tbody style=&quot;font-size: 14px;&quot;&gt;&lt;tr style=&quot;height: 20px; font-size: 14px;&quot;&gt;&lt;td align=&quot;center&quot; style=&quot;font-size: 14px;&quot;&gt;Формат данных&lt;/td&gt;&lt;/tr&gt;&lt;tr style=&quot;font-size: 14px;&quot;&gt;&lt;td align=&quot;left&quot; valign=&quot;top&quot; style=&quot;padding: 4px; font-size: 14px;&quot;&gt;Id&lt;br style=&quot;font-size: 14px;&quot;&gt;Name&lt;br style=&quot;font-size: 14px;&quot;&gt;Value&lt;br style=&quot;font-size: 14px;&quot;&gt;Type&lt;br style=&quot;font-size: 14px;&quot;&gt;Status&lt;br style=&quot;font-size: 14px;&quot;&gt;Source&lt;br style=&quot;font-size: 14px;&quot;&gt;ServerTime&lt;br style=&quot;font-size: 14px;&quot;&gt;SourceTime&lt;br style=&quot;font-size: 14px;&quot;&gt;Alias&lt;br style=&quot;font-size: 14px;&quot;&gt;&lt;br style=&quot;font-size: 14px;&quot;&gt;&lt;/td&gt;&lt;/tr&gt;&lt;/tbody&gt;&lt;/table&gt;" style="html=1;outlineConnect=0;whiteSpace=wrap;shape=mxgraph.archimate3.businessObject;overflow=fill;verticalAlign=top;fontSize=14;" parent="1" vertex="1">
          <mxGeometry x="-180" y="-995" width="150" height="160" as="geometry" />
        </mxCell>
        <mxCell id="4BpoNXQiU-3AtLkxDCB7-11" value="&lt;table cellpadding=&quot;0&quot; cellspacing=&quot;0&quot; style=&quot;font-size: 14px; width: 100%; height: 100%;&quot;&gt;&lt;tbody style=&quot;font-size: 14px;&quot;&gt;&lt;tr style=&quot;height: 20px; font-size: 14px;&quot;&gt;&lt;td align=&quot;center&quot; style=&quot;font-size: 14px;&quot;&gt;OPC сервер&lt;/td&gt;&lt;/tr&gt;&lt;tr style=&quot;font-size: 14px;&quot;&gt;&lt;td align=&quot;left&quot; valign=&quot;top&quot; style=&quot;padding: 4px; font-size: 14px;&quot;&gt;Метрологические датчики&lt;br&gt;&lt;br style=&quot;font-size: 14px;&quot;&gt;Исполнительные механизмы&lt;br style=&quot;font-size: 14px;&quot;&gt;&lt;br style=&quot;font-size: 14px;&quot;&gt;&lt;br style=&quot;font-size: 14px;&quot;&gt;&lt;/td&gt;&lt;/tr&gt;&lt;/tbody&gt;&lt;/table&gt;" style="html=1;outlineConnect=0;whiteSpace=wrap;shape=mxgraph.archimate3.businessObject;overflow=fill;fontSize=14;" parent="1" vertex="1">
          <mxGeometry x="-1070" y="-1109.9977777777779" width="160" height="112.5925925925926" as="geometry" />
        </mxCell>
        <mxCell id="4BpoNXQiU-3AtLkxDCB7-23" style="edgeStyle=orthogonalEdgeStyle;rounded=0;orthogonalLoop=1;jettySize=auto;html=1;exitX=0.5;exitY=1;exitDx=0;exitDy=0;exitPerimeter=0;dashed=1;dashPattern=1 4;startArrow=open;startFill=0;endArrow=none;endFill=0;fontSize=14;" parent="1" edge="1">
          <mxGeometry relative="1" as="geometry">
            <mxPoint x="-1000" y="-895.0922222222223" as="sourcePoint" />
            <mxPoint x="-1000" y="-895.0922222222223" as="targetPoint" />
          </mxGeometry>
        </mxCell>
        <mxCell id="JOtzG4i4qyJZSoD8lDBt-9" value="" style="endArrow=block;html=1;rounded=0;exitX=1;exitY=0.75;exitDx=0;exitDy=0;exitPerimeter=0;entryX=0;entryY=0.5;entryDx=0;entryDy=0;entryPerimeter=0;endFill=1;fontSize=14;" parent="1" source="BQeP7K4-G9sG8Y37uqka-6" target="2gFqnnszDHM0OTCBpC2Q-18" edge="1">
          <mxGeometry width="50" height="50" relative="1" as="geometry">
            <mxPoint x="490" y="-822" as="sourcePoint" />
            <mxPoint x="360" y="-740" as="targetPoint" />
          </mxGeometry>
        </mxCell>
        <mxCell id="JOtzG4i4qyJZSoD8lDBt-25" value="" style="endArrow=block;html=1;rounded=0;endFill=1;entryX=1;entryY=0.25;entryDx=0;entryDy=0;entryPerimeter=0;exitX=0;exitY=0.5;exitDx=0;exitDy=0;exitPerimeter=0;fontSize=14;" parent="1" source="q7pQSOy4l69L29XSGlJi-11" target="BQeP7K4-G9sG8Y37uqka-6" edge="1">
          <mxGeometry width="50" height="50" relative="1" as="geometry">
            <mxPoint x="-130" y="-1330" as="sourcePoint" />
            <mxPoint x="-80" y="-1380" as="targetPoint" />
            <Array as="points">
              <mxPoint x="80" y="-1375" />
              <mxPoint x="80" y="-1160" />
            </Array>
          </mxGeometry>
        </mxCell>
        <mxCell id="JOtzG4i4qyJZSoD8lDBt-39" value="Очередь Диспетчера" style="html=1;outlineConnect=0;whiteSpace=wrap;shape=mxgraph.archimate3.application;appType=serv;archiType=rounded;fontSize=14;dashed=1;" parent="1" vertex="1">
          <mxGeometry x="360" y="-1100.63" width="150" height="75" as="geometry" />
        </mxCell>
        <mxCell id="JOtzG4i4qyJZSoD8lDBt-40" value="" style="endArrow=block;html=1;rounded=0;exitX=1;exitY=0.5;exitDx=0;exitDy=0;exitPerimeter=0;entryX=0;entryY=0.5;entryDx=0;entryDy=0;entryPerimeter=0;endFill=1;fontSize=14;" parent="1" source="2gFqnnszDHM0OTCBpC2Q-18" target="JOtzG4i4qyJZSoD8lDBt-39" edge="1">
          <mxGeometry width="50" height="50" relative="1" as="geometry">
            <mxPoint x="330" y="-1049.38" as="sourcePoint" />
            <mxPoint x="470" y="-1201.38" as="targetPoint" />
            <Array as="points" />
          </mxGeometry>
        </mxCell>
        <mxCell id="Rr9Yoe83aBNbTRtHp_S8-2" value="" style="endArrow=classic;html=1;rounded=0;exitX=0;exitY=0.5;exitDx=0;exitDy=0;exitPerimeter=0;entryX=1;entryY=0.5;entryDx=0;entryDy=0;entryPerimeter=0;" parent="1" source="2gFqnnszDHM0OTCBpC2Q-9" target="q7pQSOy4l69L29XSGlJi-11" edge="1">
          <mxGeometry width="50" height="50" relative="1" as="geometry">
            <mxPoint x="990" y="-1150.63" as="sourcePoint" />
            <mxPoint x="1040" y="-1200.63" as="targetPoint" />
            <Array as="points" />
          </mxGeometry>
        </mxCell>
        <mxCell id="Rr9Yoe83aBNbTRtHp_S8-4" value="" style="endArrow=classic;html=1;rounded=0;entryX=0;entryY=0.75;entryDx=0;entryDy=0;entryPerimeter=0;exitX=1;exitY=0.5;exitDx=0;exitDy=0;exitPerimeter=0;startArrow=none;startFill=0;" parent="1" source="ocmXwIGSyRuY59burkTd-1" target="R5ZMj6Ky-UmzNaYM-wRt-24" edge="1">
          <mxGeometry width="50" height="50" relative="1" as="geometry">
            <mxPoint x="1220" y="-1268.25" as="sourcePoint" />
            <mxPoint x="780" y="-1061.25" as="targetPoint" />
          </mxGeometry>
        </mxCell>
        <mxCell id="Rr9Yoe83aBNbTRtHp_S8-6" value="Входная очередь &lt;br&gt;валидатора" style="html=1;outlineConnect=0;whiteSpace=wrap;shape=mxgraph.archimate3.application;appType=serv;archiType=rounded;fontSize=14;" parent="1" vertex="1">
          <mxGeometry x="-420" y="-1096.88" width="150" height="75" as="geometry" />
        </mxCell>
        <mxCell id="Rr9Yoe83aBNbTRtHp_S8-8" value="" style="endArrow=classic;html=1;rounded=0;exitX=0;exitY=0.25;exitDx=0;exitDy=0;exitPerimeter=0;entryX=1;entryY=0.5;entryDx=0;entryDy=0;entryPerimeter=0;" parent="1" source="BQeP7K4-G9sG8Y37uqka-6" target="ocmXwIGSyRuY59burkTd-66" edge="1">
          <mxGeometry width="50" height="50" relative="1" as="geometry">
            <mxPoint x="-400" y="-1260" as="sourcePoint" />
            <mxPoint x="-350" y="-1310" as="targetPoint" />
            <Array as="points" />
          </mxGeometry>
        </mxCell>
        <mxCell id="ocmXwIGSyRuY59burkTd-1" value="Очередь Удаленного&amp;nbsp; сервиса расчетов" style="html=1;outlineConnect=0;whiteSpace=wrap;shape=mxgraph.archimate3.application;appType=serv;archiType=rounded;fontSize=14;" vertex="1" parent="1">
          <mxGeometry x="970" y="-1321.25" width="150" height="75" as="geometry" />
        </mxCell>
        <mxCell id="ocmXwIGSyRuY59burkTd-2" value="" style="endArrow=classic;html=1;rounded=0;entryX=0;entryY=0.5;entryDx=0;entryDy=0;entryPerimeter=0;startArrow=none;startFill=0;exitX=1;exitY=0.5;exitDx=0;exitDy=0;exitPerimeter=0;" edge="1" parent="1" source="ocmXwIGSyRuY59burkTd-60" target="ocmXwIGSyRuY59burkTd-1">
          <mxGeometry width="50" height="50" relative="1" as="geometry">
            <mxPoint x="870" y="-1318.25" as="sourcePoint" />
            <mxPoint x="1310" y="-1273.25" as="targetPoint" />
          </mxGeometry>
        </mxCell>
        <mxCell id="ocmXwIGSyRuY59burkTd-3" value="PostgreSQL" style="html=1;outlineConnect=0;whiteSpace=wrap;shape=mxgraph.archimate3.application;appType=func;archiType=rounded;fontSize=14;" vertex="1" parent="1">
          <mxGeometry x="970" y="-1106.25" width="150" height="75" as="geometry" />
        </mxCell>
        <mxCell id="ocmXwIGSyRuY59burkTd-4" value="" style="endArrow=open;html=1;rounded=0;exitX=1;exitY=0.5;exitDx=0;exitDy=0;exitPerimeter=0;entryX=0;entryY=0.5;entryDx=0;entryDy=0;entryPerimeter=0;endFill=0;fontSize=14;" edge="1" parent="1" source="2gFqnnszDHM0OTCBpC2Q-6" target="ocmXwIGSyRuY59burkTd-3">
          <mxGeometry width="50" height="50" relative="1" as="geometry">
            <mxPoint x="880" y="-1156.25" as="sourcePoint" />
            <mxPoint x="980" y="-1156.25" as="targetPoint" />
            <Array as="points">
              <mxPoint x="900" y="-1166" />
              <mxPoint x="900" y="-1070" />
            </Array>
          </mxGeometry>
        </mxCell>
        <mxCell id="ocmXwIGSyRuY59burkTd-43" value="OutBox" style="shape=table;startSize=30;container=1;collapsible=1;childLayout=tableLayout;fixedRows=1;rowLines=0;fontStyle=1;align=center;resizeLast=1;html=1;" vertex="1" parent="1">
          <mxGeometry x="1170" y="-1128.75" width="140" height="150" as="geometry" />
        </mxCell>
        <mxCell id="ocmXwIGSyRuY59burkTd-44" value="" style="shape=tableRow;horizontal=0;startSize=0;swimlaneHead=0;swimlaneBody=0;fillColor=none;collapsible=0;dropTarget=0;points=[[0,0.5],[1,0.5]];portConstraint=eastwest;top=0;left=0;right=0;bottom=1;" vertex="1" parent="ocmXwIGSyRuY59burkTd-43">
          <mxGeometry y="30" width="140" height="30" as="geometry" />
        </mxCell>
        <mxCell id="ocmXwIGSyRuY59burkTd-45" value="PK" style="shape=partialRectangle;connectable=0;fillColor=none;top=0;left=0;bottom=0;right=0;fontStyle=1;overflow=hidden;whiteSpace=wrap;html=1;" vertex="1" parent="ocmXwIGSyRuY59burkTd-44">
          <mxGeometry width="30" height="30" as="geometry">
            <mxRectangle width="30" height="30" as="alternateBounds" />
          </mxGeometry>
        </mxCell>
        <mxCell id="ocmXwIGSyRuY59burkTd-46" value="Id" style="shape=partialRectangle;connectable=0;fillColor=none;top=0;left=0;bottom=0;right=0;align=left;spacingLeft=6;fontStyle=5;overflow=hidden;whiteSpace=wrap;html=1;" vertex="1" parent="ocmXwIGSyRuY59burkTd-44">
          <mxGeometry x="30" width="110" height="30" as="geometry">
            <mxRectangle width="110" height="30" as="alternateBounds" />
          </mxGeometry>
        </mxCell>
        <mxCell id="ocmXwIGSyRuY59burkTd-47" value="" style="shape=tableRow;horizontal=0;startSize=0;swimlaneHead=0;swimlaneBody=0;fillColor=none;collapsible=0;dropTarget=0;points=[[0,0.5],[1,0.5]];portConstraint=eastwest;top=0;left=0;right=0;bottom=0;" vertex="1" parent="ocmXwIGSyRuY59burkTd-43">
          <mxGeometry y="60" width="140" height="30" as="geometry" />
        </mxCell>
        <mxCell id="ocmXwIGSyRuY59burkTd-48" value="" style="shape=partialRectangle;connectable=0;fillColor=none;top=0;left=0;bottom=0;right=0;editable=1;overflow=hidden;whiteSpace=wrap;html=1;" vertex="1" parent="ocmXwIGSyRuY59burkTd-47">
          <mxGeometry width="30" height="30" as="geometry">
            <mxRectangle width="30" height="30" as="alternateBounds" />
          </mxGeometry>
        </mxCell>
        <mxCell id="ocmXwIGSyRuY59burkTd-49" value="Message_id" style="shape=partialRectangle;connectable=0;fillColor=none;top=0;left=0;bottom=0;right=0;align=left;spacingLeft=6;overflow=hidden;whiteSpace=wrap;html=1;" vertex="1" parent="ocmXwIGSyRuY59burkTd-47">
          <mxGeometry x="30" width="110" height="30" as="geometry">
            <mxRectangle width="110" height="30" as="alternateBounds" />
          </mxGeometry>
        </mxCell>
        <mxCell id="ocmXwIGSyRuY59burkTd-50" value="" style="shape=tableRow;horizontal=0;startSize=0;swimlaneHead=0;swimlaneBody=0;fillColor=none;collapsible=0;dropTarget=0;points=[[0,0.5],[1,0.5]];portConstraint=eastwest;top=0;left=0;right=0;bottom=0;" vertex="1" parent="ocmXwIGSyRuY59burkTd-43">
          <mxGeometry y="90" width="140" height="30" as="geometry" />
        </mxCell>
        <mxCell id="ocmXwIGSyRuY59burkTd-51" value="" style="shape=partialRectangle;connectable=0;fillColor=none;top=0;left=0;bottom=0;right=0;editable=1;overflow=hidden;whiteSpace=wrap;html=1;" vertex="1" parent="ocmXwIGSyRuY59burkTd-50">
          <mxGeometry width="30" height="30" as="geometry">
            <mxRectangle width="30" height="30" as="alternateBounds" />
          </mxGeometry>
        </mxCell>
        <mxCell id="ocmXwIGSyRuY59burkTd-52" value="Parameter_Id" style="shape=partialRectangle;connectable=0;fillColor=none;top=0;left=0;bottom=0;right=0;align=left;spacingLeft=6;overflow=hidden;whiteSpace=wrap;html=1;" vertex="1" parent="ocmXwIGSyRuY59burkTd-50">
          <mxGeometry x="30" width="110" height="30" as="geometry">
            <mxRectangle width="110" height="30" as="alternateBounds" />
          </mxGeometry>
        </mxCell>
        <mxCell id="ocmXwIGSyRuY59burkTd-53" value="" style="shape=tableRow;horizontal=0;startSize=0;swimlaneHead=0;swimlaneBody=0;fillColor=none;collapsible=0;dropTarget=0;points=[[0,0.5],[1,0.5]];portConstraint=eastwest;top=0;left=0;right=0;bottom=0;" vertex="1" parent="ocmXwIGSyRuY59burkTd-43">
          <mxGeometry y="120" width="140" height="30" as="geometry" />
        </mxCell>
        <mxCell id="ocmXwIGSyRuY59burkTd-54" value="" style="shape=partialRectangle;connectable=0;fillColor=none;top=0;left=0;bottom=0;right=0;editable=1;overflow=hidden;whiteSpace=wrap;html=1;" vertex="1" parent="ocmXwIGSyRuY59burkTd-53">
          <mxGeometry width="30" height="30" as="geometry">
            <mxRectangle width="30" height="30" as="alternateBounds" />
          </mxGeometry>
        </mxCell>
        <mxCell id="ocmXwIGSyRuY59burkTd-55" value="Is_Sent" style="shape=partialRectangle;connectable=0;fillColor=none;top=0;left=0;bottom=0;right=0;align=left;spacingLeft=6;overflow=hidden;whiteSpace=wrap;html=1;" vertex="1" parent="ocmXwIGSyRuY59burkTd-53">
          <mxGeometry x="30" width="110" height="30" as="geometry">
            <mxRectangle width="110" height="30" as="alternateBounds" />
          </mxGeometry>
        </mxCell>
        <mxCell id="ocmXwIGSyRuY59burkTd-57" value="" style="endArrow=classic;html=1;rounded=0;exitX=0;exitY=0.25;exitDx=0;exitDy=0;exitPerimeter=0;entryX=1;entryY=0.5;entryDx=0;entryDy=0;entryPerimeter=0;" edge="1" parent="1" source="R5ZMj6Ky-UmzNaYM-wRt-24" target="2gFqnnszDHM0OTCBpC2Q-9">
          <mxGeometry width="50" height="50" relative="1" as="geometry">
            <mxPoint x="1190" y="-1511.25" as="sourcePoint" />
            <mxPoint x="1240" y="-1561.25" as="targetPoint" />
          </mxGeometry>
        </mxCell>
        <mxCell id="ocmXwIGSyRuY59burkTd-60" value="Message Relay" style="html=1;outlineConnect=0;whiteSpace=wrap;shape=mxgraph.archimate3.application;appType=comp;archiType=square;fontSize=14;" vertex="1" parent="1">
          <mxGeometry x="720" y="-1320" width="150" height="71.25" as="geometry" />
        </mxCell>
        <mxCell id="ocmXwIGSyRuY59burkTd-64" value="" style="endArrow=classic;html=1;rounded=0;exitX=1;exitY=0.75;exitDx=0;exitDy=0;exitPerimeter=0;entryX=0;entryY=0.25;entryDx=0;entryDy=0;entryPerimeter=0;dashed=1;" edge="1" parent="1" source="ocmXwIGSyRuY59burkTd-60" target="ocmXwIGSyRuY59burkTd-3">
          <mxGeometry width="50" height="50" relative="1" as="geometry">
            <mxPoint x="1400" y="-1080" as="sourcePoint" />
            <mxPoint x="1450" y="-1130" as="targetPoint" />
            <Array as="points">
              <mxPoint x="920" y="-1267" />
              <mxPoint x="920" y="-1087" />
            </Array>
          </mxGeometry>
        </mxCell>
        <mxCell id="ocmXwIGSyRuY59burkTd-65" value="Очередь Локального сервиса расчетов" style="html=1;outlineConnect=0;whiteSpace=wrap;shape=mxgraph.archimate3.application;appType=serv;archiType=rounded;fontSize=14;dashed=1;" vertex="1" parent="1">
          <mxGeometry x="720" y="-1099.38" width="150" height="75" as="geometry" />
        </mxCell>
        <mxCell id="ocmXwIGSyRuY59burkTd-66" value="Входная очередь &lt;br&gt;ОРС Cient" style="html=1;outlineConnect=0;whiteSpace=wrap;shape=mxgraph.archimate3.application;appType=serv;archiType=rounded;fontSize=14;" vertex="1" parent="1">
          <mxGeometry x="-420" y="-1197.0000000000002" width="150" height="75" as="geometry" />
        </mxCell>
        <mxCell id="ocmXwIGSyRuY59burkTd-68" value="" style="endArrow=classic;html=1;rounded=0;exitX=0;exitY=0.5;exitDx=0;exitDy=0;exitPerimeter=0;entryX=0.5;entryY=0;entryDx=0;entryDy=0;entryPerimeter=0;" edge="1" parent="1" source="ocmXwIGSyRuY59burkTd-66" target="YP6sj-OteDb_MOu1oAyH-16">
          <mxGeometry width="50" height="50" relative="1" as="geometry">
            <mxPoint x="-380" y="-920" as="sourcePoint" />
            <mxPoint x="-330" y="-970" as="targetPoint" />
            <Array as="points">
              <mxPoint x="-575" y="-1160" />
            </Array>
          </mxGeometry>
        </mxCell>
      </root>
    </mxGraphModel>
  </diagram>
</mxfile>
